<?xml version="1.0" encoding="UTF-8"?>
<svg id="_レイヤー_2" data-name="レイヤー 2" xmlns="http://www.w3.org/2000/svg" xmlns:xlink="http://www.w3.org/1999/xlink" viewBox="0 0 816.72 1549.6">
  <defs>
    <style>
      .cls-1 {
        glyph-orientation-vertical: 0deg;
        text-orientation: upright;
        writing-mode: tb;
      }

      .cls-1, .cls-2, .cls-3 {
        font-family: GenShinGothic-Monospace-Medium, 'Gen Shin Gothic Monospace';
        font-size: 48px;
        font-weight: 500;
      }

      .cls-1, .cls-4, .cls-5 {
        fill: #3e3a39;
      }

      .cls-6 {
        stroke-dasharray: 0 0 12.43 12.43;
      }

      .cls-6, .cls-7, .cls-8, .cls-9, .cls-10, .cls-11, .cls-12, .cls-13, .cls-14, .cls-15, .cls-16 {
        stroke-miterlimit: 10;
      }

      .cls-6, .cls-7, .cls-9, .cls-10, .cls-11, .cls-12, .cls-13, .cls-14, .cls-15, .cls-16 {
        fill: none;
      }

      .cls-6, .cls-7, .cls-9, .cls-10, .cls-13, .cls-14, .cls-15, .cls-16 {
        stroke: #3e3a39;
      }

      .cls-6, .cls-7, .cls-9, .cls-13, .cls-14, .cls-15, .cls-16 {
        stroke-width: 4px;
      }

      .cls-7 {
        stroke-dasharray: 0 0 11.78 11.78;
      }

      .cls-2, .cls-17 {
        fill: #595757;
      }

      .cls-3, .cls-18 {
        fill: #fff;
      }

      .cls-8 {
        fill: #ceada4;
      }

      .cls-8, .cls-10, .cls-11, .cls-12 {
        stroke-width: 2px;
      }

      .cls-8, .cls-12 {
        stroke: #fff;
      }

      .cls-9 {
        stroke-dasharray: 0 0 11.22 11.22;
      }

      .cls-18 {
        font-family: GenShinGothic-Monospace-Regular, 'Gen Shin Gothic Monospace';
        font-size: 36px;
      }

      .cls-11 {
        stroke: #595757;
      }

      .cls-4 {
        opacity: .5;
      }

      .cls-4, .cls-19, .cls-20, .cls-17, .cls-5 {
        stroke-width: 0px;
      }

      .cls-21 {
        opacity: .8;
      }

      .cls-14 {
        stroke-dasharray: 0 0 12.1 12.1;
      }

      .cls-15 {
        stroke-dasharray: 0 0 11.95 11.95;
      }

      .cls-16 {
        stroke-dasharray: 0 0 12.28 12.28;
      }

      .cls-19 {
        fill: #f7f8f8;
      }

      .cls-20 {
        fill: #46b57c;
      }
    </style>
  </defs>
  <g id="Layer_1" data-name="Layer 1">
    <g>
      <rect class="cls-8" x="-176.73" y="647" width="1546.21" height="256.99" transform="translate(1371.87 179.12) rotate(90)"/>
      <rect class="cls-19" x="-98.46" y="765.49" width="1546.21" height="20" transform="translate(1450.14 100.84) rotate(90)"/>
      <rect class="cls-19" x="-257.37" y="765.49" width="1546.21" height="20" transform="translate(1291.23 259.76) rotate(90)"/>
      <rect class="cls-19" x="514.89" y="503.33" width="164.72" height="20" transform="translate(1194.5 1026.65) rotate(180)"/>
      <rect class="cls-19" x="514.89" y="1322.47" width="164.72" height="20" transform="translate(1194.5 2664.95) rotate(180)"/>
      <polygon class="cls-20" points="595.42 573.42 664.88 523.57 525.95 523.57 595.42 573.42"/>
      <polygon class="cls-20" points="595.04 1272.72 664.37 1322.57 525.71 1322.57 595.04 1272.72"/>
      <text class="cls-2" transform="translate(680.34 101.86)"><tspan x="0" y="0">P1</tspan></text>
      <text class="cls-2" transform="translate(680.34 207.08)"><tspan x="0" y="0">P2</tspan></text>
      <text class="cls-2" transform="translate(680.34 467.03)"><tspan x="0" y="0">P3</tspan></text>
      <text class="cls-2" transform="translate(680.34 674.96)"><tspan x="0" y="0">P4</tspan></text>
      <text class="cls-2" transform="translate(680.34 872.17)"><tspan x="0" y="0">P5</tspan></text>
      <g>
        <line class="cls-10" x1="773.28" y1="532.92" x2="773.28" y2="641.12"/>
        <polygon class="cls-5" points="766.92 544.74 768.8 545.43 773.28 533.12 777.76 545.43 779.64 544.74 773.28 527.27 766.92 544.74"/>
      </g>
      <g>
        <line class="cls-10" x1="773.28" y1="1303.42" x2="773.28" y2="1195.22"/>
        <polygon class="cls-5" points="779.64 1291.6 777.76 1290.92 773.28 1303.23 768.8 1290.92 766.92 1291.6 773.28 1309.07 779.64 1291.6"/>
      </g>
      <g>
        <line class="cls-13" x1="753.16" y1="188.71" x2="753.16" y2="1.9"/>
        <polygon class="cls-5" points="753.16 216.95 769.42 177.16 753.16 186.6 736.9 177.16 753.16 216.95"/>
      </g>
      <g>
        <path class="cls-17" d="M491.82,500.15h-5.95l-5.58-14.25h-2.81v14.25h-5.67v-35.44h8.44c7.19,0,10.78,3.44,10.78,10.31,0,4.88-1.86,8.16-5.58,9.84l6.38,15.28ZM477.48,481.4h2.11c1.91,0,3.37-.54,4.38-1.62s1.52-2.66,1.52-4.76-.49-3.54-1.48-4.43-2.46-1.34-4.43-1.34h-2.11v12.14Z"/>
        <path class="cls-17" d="M495.71,500.15v-4.55h7.27v-23.72h-5.91v-3.52c2.84-.47,5.28-1.38,7.31-2.72h4.12v29.95h6.42v4.55h-19.22Z"/>
        <path class="cls-17" d="M491.82,557.75h-5.95l-5.58-14.25h-2.81v14.25h-5.67v-35.44h8.44c7.19,0,10.78,3.44,10.78,10.31,0,4.88-1.86,8.16-5.58,9.84l6.38,15.28ZM477.48,539h2.11c1.91,0,3.37-.54,4.38-1.62s1.52-2.66,1.52-4.76-.49-3.54-1.48-4.43-2.46-1.34-4.43-1.34h-2.11v12.14Z"/>
        <path class="cls-17" d="M495.05,557.75v-3.23c4.62-5.31,7.95-9.52,9.96-12.61s3.02-6.03,3.02-8.81c0-1.84-.38-3.3-1.15-4.36s-1.87-1.59-3.3-1.59c-1.97,0-3.86,1.19-5.67,3.56l-3.14-3.05c2.81-3.38,5.98-5.06,9.52-5.06,2.78,0,5,.93,6.66,2.79s2.48,4.34,2.48,7.43c0,2.88-.89,5.86-2.67,8.95s-4.53,6.97-8.25,11.62c2.5-.19,4.27-.28,5.3-.28h7.12v4.64h-19.88Z"/>
      </g>
      <text class="cls-2" transform="translate(468.99 701.98)"><tspan x="0" y="0">R3</tspan></text>
      <text class="cls-2" transform="translate(468.99 861.91)"><tspan x="0" y="0">R4</tspan></text>
      <text class="cls-2" transform="translate(468.99 981.94)"><tspan x="0" y="0">R5</tspan></text>
      <text class="cls-2" transform="translate(680.34 1000.56)"><tspan x="0" y="0">P6</tspan></text>
      <text class="cls-2" transform="translate(468.99 1110.33)"><tspan x="0" y="0">R6</tspan></text>
      <text class="cls-2" transform="translate(680.34 1128.99)"><tspan x="0" y="0">P7</tspan></text>
      <text class="cls-2" transform="translate(468.99 1238.76)"><tspan x="0" y="0">R7</tspan></text>
      <text class="cls-2" transform="translate(680.34 1203.95)"><tspan x="0" y="0">P8</tspan></text>
      <text class="cls-2" transform="translate(468.99 1313.72)"><tspan x="0" y="0">R8</tspan></text>
      <g class="cls-21">
        <g>
          <line class="cls-13" x1="631.36" y1="78.24" x2="630.31" y2="84.15"/>
          <line class="cls-16" x1="628.16" y1="96.24" x2="556.2" y2="501.3"/>
          <line class="cls-13" x1="555.12" y1="507.34" x2="554.07" y2="513.25"/>
        </g>
      </g>
      <g class="cls-21">
        <g>
          <line class="cls-13" x1="631.08" y1="183.48" x2="629.71" y2="189.33"/>
          <line class="cls-14" x1="626.96" y1="201.11" x2="556.81" y2="501.52"/>
          <line class="cls-13" x1="555.44" y1="507.41" x2="554.07" y2="513.25"/>
        </g>
      </g>
      <g class="cls-21">
        <g>
          <line class="cls-13" x1="631.08" y1="444.77" x2="629.21" y2="450.48"/>
          <line class="cls-6" x1="625.36" y1="462.3" x2="557.86" y2="669.18"/>
          <line class="cls-13" x1="555.93" y1="675.09" x2="554.07" y2="680.79"/>
        </g>
      </g>
      <g class="cls-21">
        <g>
          <line class="cls-13" x1="631.08" y1="651.92" x2="628.89" y2="657.51"/>
          <line class="cls-7" x1="624.58" y1="668.47" x2="557.93" y2="838.43"/>
          <line class="cls-13" x1="555.78" y1="843.91" x2="553.59" y2="849.5"/>
        </g>
      </g>
      <g class="cls-21">
        <g>
          <line class="cls-13" x1="631.41" y1="839.92" x2="628.17" y2="844.98"/>
          <line class="cls-15" x1="621.73" y1="855.04" x2="560.53" y2="950.67"/>
          <line class="cls-13" x1="557.31" y1="955.7" x2="554.07" y2="960.76"/>
        </g>
      </g>
      <g class="cls-21">
        <g>
          <line class="cls-13" x1="631.08" y1="977.78" x2="627.66" y2="982.72"/>
          <line class="cls-9" x1="621.28" y1="991.94" x2="560.68" y2="1079.59"/>
          <line class="cls-13" x1="557.49" y1="1084.21" x2="554.07" y2="1089.14"/>
        </g>
      </g>
      <g class="cls-21">
        <g>
          <line class="cls-13" x1="631.08" y1="1104.25" x2="627.66" y2="1109.18"/>
          <line class="cls-9" x1="621.28" y1="1118.41" x2="560.68" y2="1206.06"/>
          <line class="cls-13" x1="557.49" y1="1210.67" x2="554.07" y2="1215.6"/>
        </g>
      </g>
      <g class="cls-21">
        <g>
          <line class="cls-13" x1="631.08" y1="1181.17" x2="627.66" y2="1186.11"/>
          <line class="cls-9" x1="621.28" y1="1195.33" x2="560.68" y2="1282.98"/>
          <line class="cls-13" x1="557.49" y1="1287.6" x2="554.07" y2="1292.53"/>
        </g>
      </g>
      <rect class="cls-4" x="623.37" y="41.01" width="16.08" height="76.56" rx="8.04" ry="8.04" transform="translate(710.7 -552.12) rotate(90)"/>
      <rect class="cls-4" x="623.37" y="144.83" width="16.08" height="76.56" rx="8.04" ry="8.04" transform="translate(814.52 -448.3) rotate(90)"/>
      <rect class="cls-4" x="623.37" y="403.62" width="16.08" height="76.56" rx="8.04" ry="8.04" transform="translate(1073.31 -189.5) rotate(90)"/>
      <rect class="cls-4" x="623.37" y="614.11" width="16.08" height="76.56" rx="8.04" ry="8.04" transform="translate(1283.81 20.99) rotate(90)"/>
      <rect class="cls-4" x="623.37" y="801.64" width="16.08" height="76.56" rx="8.04" ry="8.04" transform="translate(1471.33 208.51) rotate(90)"/>
      <rect class="cls-4" x="623.37" y="939.36" width="16.08" height="76.56" rx="8.04" ry="8.04" transform="translate(1609.05 346.23) rotate(90)"/>
      <rect class="cls-4" x="623.37" y="1066.31" width="16.08" height="76.56" rx="8.04" ry="8.04" transform="translate(1736 473.18) rotate(90)"/>
      <rect class="cls-4" x="623.37" y="1141.66" width="16.08" height="76.56" rx="8.04" ry="8.04" transform="translate(1811.35 548.53) rotate(90)"/>
      <rect class="cls-4" x="545.55" y="475.68" width="16.08" height="76.56" rx="8.04" ry="8.04" transform="translate(1067.56 -39.63) rotate(90)"/>
      <rect class="cls-4" x="545.55" y="642.57" width="16.08" height="76.56" rx="8.04" ry="8.04" transform="translate(1234.44 127.26) rotate(90)"/>
      <rect class="cls-4" x="545.55" y="811.22" width="16.08" height="76.56" rx="8.04" ry="8.04" transform="translate(1403.09 295.91) rotate(90)"/>
      <rect class="cls-4" x="545.55" y="920.31" width="16.08" height="76.56" rx="8.04" ry="8.04" transform="translate(1512.19 405) rotate(90)"/>
      <rect class="cls-4" x="545.55" y="1048.05" width="16.08" height="76.56" rx="8.04" ry="8.04" transform="translate(1639.92 532.74) rotate(90)"/>
      <rect class="cls-4" x="545.55" y="1177.41" width="16.08" height="76.56" rx="8.04" ry="8.04" transform="translate(1769.29 662.1) rotate(90)"/>
      <rect class="cls-4" x="545.55" y="1254.05" width="16.08" height="76.56" rx="8.04" ry="8.04" transform="translate(1845.93 738.74) rotate(90)"/>
      <polygon class="cls-5" points="538.43 160.88 545.97 175.82 562.56 178.08 550.68 189.87 553.66 206.34 538.78 198.68 524.03 206.61 526.71 190.09 514.62 178.51 531.16 175.96 538.43 160.88"/>
      <line class="cls-11" x1="677.92" y1="522.36" x2="787.35" y2="522.36"/>
      <line class="cls-11" x1="677.92" y1="1324.5" x2="787.35" y2="1324.5"/>
      <text class="cls-1" transform="translate(772.72 663.58)"><tspan x="0" y="0">バトンゾーン（30m）</tspan></text>
      <text class="cls-1" transform="translate(785.96 12.21)"><tspan x="0" y="0">走方向</tspan></text>
      <text class="cls-1" transform="translate(493.62 115.81)"><tspan x="0" y="0">マーカ</tspan></text>
    </g>
    <image width="202" height="706" transform="translate(0 1.9) scale(2.19)" xlink:href="rio_fixed_2.png"/>
    <text class="cls-3" transform="translate(254 51.85)"><tspan x="0" y="0">P</tspan></text>
    <text class="cls-3" transform="translate(60.62 141.28)"><tspan x="0" y="0">R</tspan></text>
    <text class="cls-18" transform="translate(289.87 772.7)"><tspan x="0" y="0">はい！</tspan></text>
    <polygon class="cls-12" points="265.81 760.09 290.44 782.58 259.02 808.29 300.8 789.72 299.37 833.28 325.43 799.72 342.57 839.35 352.21 797.58 387.92 833.99 380.42 786.15 418.62 788.65 387.2 766.16 436.83 745.8 387.2 742.59 400.77 715.81 371.14 733.31 355.07 695.1 341.5 726.17 327.22 702.6 316.15 724.74 280.8 686.53 293.66 728.31 275.45 725.1 286.87 752.23 255.45 750.8 265.81 760.09"/>
  </g>
</svg>